#tb 0: 1/25
0,          0,          0,        1,    38016, 0x3ae838ee
0,          1,          1,        1,    38016, 0x8523e136
0,          2,          2,        1,    38016, 0xcffc99dd
0,          3,          3,        1,    38016, 0xd42c63b0
0,          4,          4,        1,    38016, 0x6ba94f84
0,          5,          5,        1,    38016, 0xa5c56dd3
0,          6,          6,        1,    38016, 0x6f6a929e
0,          7,          7,        1,    38016, 0x84f89b27
0,          8,          8,        1,    38016, 0x35bd9f0f
0,          9,          9,        1,    38016, 0x69058ed2
0,         10,         10,        1,    38016, 0x44c05088
0,         11,         11,        1,    38016, 0xed9725f0
0,         12,         12,        1,    38016, 0x37b92a40
0,         13,         13,        1,    38016, 0xbeed3c7c
0,         14,         14,        1,    38016, 0x833a5669
0,         15,         15,        1,    38016, 0xf37b78b1
0,         16,         16,        1,    38016, 0x84e2aff4
0,         17,         17,        1,    38016, 0x8c69c59c
0,         18,         18,        1,    38016, 0x40fdbe25
0,         19,         19,        1,    38016, 0x1c7cba40
0,         20,         20,        1,    38016, 0x052abe29
0,         21,         21,        1,    38016, 0x398ec317
0,         22,         22,        1,    38016, 0xa157bb47
0,         23,         23,        1,    38016, 0x6acfc1a0
0,         24,         24,        1,    38016, 0xfa77bdba
0,         25,         25,        1,    38016, 0x2254bb0d
0,         26,         26,        1,    38016, 0xefdfbdb3
0,         27,         27,        1,    38016, 0x80eec1f4
0,         28,         28,        1,    38016, 0x48b6c903
0,         29,         29,        1,    38016, 0x277dd23b
0,         30,         30,        1,    38016, 0x4c6aa7c5
0,         31,         31,        1,    38016, 0x223f6bb7
0,         32,         32,        1,    38016, 0xdbee4420
0,         33,         33,        1,    38016, 0x5f888bdc
0,         34,         34,        1,    38016, 0xe5aef9b8
0,         35,         35,        1,    38016, 0x6a68596e
0,         36,         36,        1,    38016, 0x47feb0d4
0,         37,         37,        1,    38016, 0x46d13363
0,         38,         38,        1,    38016, 0x31758ae0
0,         39,         39,        1,    38016, 0xa9b3c513
0,         40,         40,        1,    38016, 0x041ce805
0,         41,         41,        1,    38016, 0xd3aef1e9
0,         42,         42,        1,    38016, 0x8c51ecf8
0,         43,         43,        1,    38016, 0x60a5f20d
0,         44,         44,        1,    38016, 0xf3c80bfb
0,         45,         45,        1,    38016, 0xcec4f6af
0,         46,         46,        1,    38016, 0x70a1c28c
0,         47,         47,        1,    38016, 0x1c579938
0,         48,         48,        1,    38016, 0x07a8a63d
0,         49,         49,        1,    38016, 0xd16ccd4e
0,         50,         50,        1,    38016, 0xceb5e478
0,         51,         51,        1,    38016, 0x81c0bf00
0,         52,         52,        1,    38016, 0x4867d846
0,         53,         53,        1,    38016, 0xd8650fd3
0,         54,         54,        1,    38016, 0x1d8f375c
0,         55,         55,        1,    38016, 0x5ce65ef5
0,         56,         56,        1,    38016, 0xbc766bf0
0,         57,         57,        1,    38016, 0x73cd27ee
0,         58,         58,        1,    38016, 0xd1433004
0,         59,         59,        1,    38016, 0xc5bc4798
0,         60,         60,        1,    38016, 0xeb8a3531
0,         61,         61,        1,    38016, 0xd4b014b8
0,         62,         62,        1,    38016, 0xaaa2c77e
0,         63,         63,        1,    38016, 0xa0a5a94e
0,         64,         64,        1,    38016, 0x74edcf2e
0,         65,         65,        1,    38016, 0x2925e32a
0,         66,         66,        1,    38016, 0x5400da3a
0,         67,         67,        1,    38016, 0xc50eda9b
0,         68,         68,        1,    38016, 0xfd4acbe7
0,         69,         69,        1,    38016, 0xa75eb6ee
0,         70,         70,        1,    38016, 0xc0dca463
0,         71,         71,        1,    38016, 0xfd1b83b7
0,         72,         72,        1,    38016, 0x5b378f02
0,         73,         73,        1,    38016, 0x608983d5
0,         74,         74,        1,    38016, 0x6f6f2cda
0,         75,         75,        1,    38016, 0x9367e1b2
0,         76,         76,        1,    38016, 0x12d7d677
0,         77,         77,        1,    38016, 0xd02cc0c5
0,         78,         78,        1,    38016, 0xbe2fed59
0,         79,         79,        1,    38016, 0x66c1402d
0,         80,         80,        1,    38016, 0x150e75cf
0,         81,         81,        1,    38016, 0x83c959ea
0,         82,         82,        1,    38016, 0xa9c048f4
0,         83,         83,        1,    38016, 0xffa9237f
0,         84,         84,        1,    38016, 0x0ab0d668
0,         85,         85,        1,    38016, 0xae4de2a4
0,         86,         86,        1,    38016, 0xfc4322e8
0,         87,         87,        1,    38016, 0x21f026dd
0,         88,         88,        1,    38016, 0x7582b6a6
0,         89,         89,        1,    38016, 0x4ddc5306
0,         90,         90,        1,    38016, 0x1722db32
0,         91,         91,        1,    38016, 0x33a0ace6
0,         92,         92,        1,    38016, 0xe96ebd07
0,         93,         93,        1,    38016, 0xdff2e5ef
0,         94,         94,        1,    38016, 0xbf941880
0,         95,         95,        1,    38016, 0x12ffcea4
0,         96,         96,        1,    38016, 0x1ef6aaef
0,         97,         97,        1,    38016, 0x2b01f811
0,         98,         98,        1,    38016, 0x422b5992
0,         99,         99,        1,    38016, 0x68ba9d2d
